<mxfile host="app.diagrams.net" modified="2020-09-28T22:10:21.109Z" agent="5.0 (Windows NT 10.0; Win64; x64) AppleWebKit/537.36 (KHTML, like Gecko) Chrome/85.0.4183.121 Safari/537.36" etag="O8ELbhtnIgeyLbAlg32y" version="13.6.6" type="github">
  <diagram id="_gB-FK5_dczNF9piZJ4E" name="Page-1">
    <mxGraphModel dx="680" dy="792" grid="1" gridSize="10" guides="1" tooltips="1" connect="1" arrows="1" fold="1" page="1" pageScale="1" pageWidth="850" pageHeight="1100" math="0" shadow="0">
      <root>
        <mxCell id="0" />
        <mxCell id="1" parent="0" />
        <mxCell id="-HlL1mTTfAjTqxTfN3M8-5" value="PAINTER" style="shape=table;startSize=30;container=1;collapsible=1;childLayout=tableLayout;fixedRows=1;rowLines=0;fontStyle=1;align=center;resizeLast=1;" vertex="1" parent="1">
          <mxGeometry x="20" y="180" width="180" height="160" as="geometry">
            <mxRectangle x="20" y="180" width="80" height="30" as="alternateBounds" />
          </mxGeometry>
        </mxCell>
        <mxCell id="-HlL1mTTfAjTqxTfN3M8-6" value="" style="shape=partialRectangle;collapsible=0;dropTarget=0;pointerEvents=0;fillColor=none;top=0;left=0;bottom=1;right=0;points=[[0,0.5],[1,0.5]];portConstraint=eastwest;" vertex="1" parent="-HlL1mTTfAjTqxTfN3M8-5">
          <mxGeometry y="30" width="180" height="30" as="geometry" />
        </mxCell>
        <mxCell id="-HlL1mTTfAjTqxTfN3M8-7" value="PK" style="shape=partialRectangle;connectable=0;fillColor=none;top=0;left=0;bottom=0;right=0;fontStyle=1;overflow=hidden;" vertex="1" parent="-HlL1mTTfAjTqxTfN3M8-6">
          <mxGeometry width="30" height="30" as="geometry" />
        </mxCell>
        <mxCell id="-HlL1mTTfAjTqxTfN3M8-8" value="PAINTER_NUM" style="shape=partialRectangle;connectable=0;fillColor=none;top=0;left=0;bottom=0;right=0;align=left;spacingLeft=6;fontStyle=5;overflow=hidden;" vertex="1" parent="-HlL1mTTfAjTqxTfN3M8-6">
          <mxGeometry x="30" width="150" height="30" as="geometry" />
        </mxCell>
        <mxCell id="-HlL1mTTfAjTqxTfN3M8-9" value="" style="shape=partialRectangle;collapsible=0;dropTarget=0;pointerEvents=0;fillColor=none;top=0;left=0;bottom=0;right=0;points=[[0,0.5],[1,0.5]];portConstraint=eastwest;" vertex="1" parent="-HlL1mTTfAjTqxTfN3M8-5">
          <mxGeometry y="60" width="180" height="30" as="geometry" />
        </mxCell>
        <mxCell id="-HlL1mTTfAjTqxTfN3M8-10" value="" style="shape=partialRectangle;connectable=0;fillColor=none;top=0;left=0;bottom=0;right=0;editable=1;overflow=hidden;" vertex="1" parent="-HlL1mTTfAjTqxTfN3M8-9">
          <mxGeometry width="30" height="30" as="geometry" />
        </mxCell>
        <mxCell id="-HlL1mTTfAjTqxTfN3M8-11" value="PAINTER_LNAME" style="shape=partialRectangle;connectable=0;fillColor=none;top=0;left=0;bottom=0;right=0;align=left;spacingLeft=6;overflow=hidden;" vertex="1" parent="-HlL1mTTfAjTqxTfN3M8-9">
          <mxGeometry x="30" width="150" height="30" as="geometry" />
        </mxCell>
        <mxCell id="-HlL1mTTfAjTqxTfN3M8-12" value="" style="shape=partialRectangle;collapsible=0;dropTarget=0;pointerEvents=0;fillColor=none;top=0;left=0;bottom=0;right=0;points=[[0,0.5],[1,0.5]];portConstraint=eastwest;" vertex="1" parent="-HlL1mTTfAjTqxTfN3M8-5">
          <mxGeometry y="90" width="180" height="30" as="geometry" />
        </mxCell>
        <mxCell id="-HlL1mTTfAjTqxTfN3M8-13" value="" style="shape=partialRectangle;connectable=0;fillColor=none;top=0;left=0;bottom=0;right=0;editable=1;overflow=hidden;" vertex="1" parent="-HlL1mTTfAjTqxTfN3M8-12">
          <mxGeometry width="30" height="30" as="geometry" />
        </mxCell>
        <mxCell id="-HlL1mTTfAjTqxTfN3M8-14" value="PAINTER_FNAME" style="shape=partialRectangle;connectable=0;fillColor=none;top=0;left=0;bottom=0;right=0;align=left;spacingLeft=6;overflow=hidden;" vertex="1" parent="-HlL1mTTfAjTqxTfN3M8-12">
          <mxGeometry x="30" width="150" height="30" as="geometry" />
        </mxCell>
        <mxCell id="-HlL1mTTfAjTqxTfN3M8-15" value="" style="shape=partialRectangle;collapsible=0;dropTarget=0;pointerEvents=0;fillColor=none;top=0;left=0;bottom=0;right=0;points=[[0,0.5],[1,0.5]];portConstraint=eastwest;" vertex="1" parent="-HlL1mTTfAjTqxTfN3M8-5">
          <mxGeometry y="120" width="180" height="30" as="geometry" />
        </mxCell>
        <mxCell id="-HlL1mTTfAjTqxTfN3M8-16" value="" style="shape=partialRectangle;connectable=0;fillColor=none;top=0;left=0;bottom=0;right=0;editable=1;overflow=hidden;" vertex="1" parent="-HlL1mTTfAjTqxTfN3M8-15">
          <mxGeometry width="30" height="30" as="geometry" />
        </mxCell>
        <mxCell id="-HlL1mTTfAjTqxTfN3M8-17" value="PAINTER_INITIAL" style="shape=partialRectangle;connectable=0;fillColor=none;top=0;left=0;bottom=0;right=0;align=left;spacingLeft=6;overflow=hidden;" vertex="1" parent="-HlL1mTTfAjTqxTfN3M8-15">
          <mxGeometry x="30" width="150" height="30" as="geometry" />
        </mxCell>
        <mxCell id="-HlL1mTTfAjTqxTfN3M8-51" value="" style="edgeStyle=entityRelationEdgeStyle;fontSize=12;html=1;endArrow=ERoneToMany;exitX=1;exitY=0.5;exitDx=0;exitDy=0;entryX=0;entryY=0.5;entryDx=0;entryDy=0;" edge="1" parent="1" source="-HlL1mTTfAjTqxTfN3M8-6" target="-HlL1mTTfAjTqxTfN3M8-48">
          <mxGeometry width="100" height="100" relative="1" as="geometry">
            <mxPoint x="220" y="460" as="sourcePoint" />
            <mxPoint x="320" y="360" as="targetPoint" />
          </mxGeometry>
        </mxCell>
        <mxCell id="-HlL1mTTfAjTqxTfN3M8-35" value="PAINTING" style="shape=table;startSize=30;container=1;collapsible=1;childLayout=tableLayout;fixedRows=1;rowLines=0;fontStyle=1;align=center;resizeLast=1;" vertex="1" parent="1">
          <mxGeometry x="290" y="180" width="180" height="130" as="geometry">
            <mxRectangle x="290" y="180" width="90" height="30" as="alternateBounds" />
          </mxGeometry>
        </mxCell>
        <mxCell id="-HlL1mTTfAjTqxTfN3M8-36" value="" style="shape=partialRectangle;collapsible=0;dropTarget=0;pointerEvents=0;fillColor=none;top=0;left=0;bottom=1;right=0;points=[[0,0.5],[1,0.5]];portConstraint=eastwest;" vertex="1" parent="-HlL1mTTfAjTqxTfN3M8-35">
          <mxGeometry y="30" width="180" height="30" as="geometry" />
        </mxCell>
        <mxCell id="-HlL1mTTfAjTqxTfN3M8-37" value="PK" style="shape=partialRectangle;connectable=0;fillColor=none;top=0;left=0;bottom=0;right=0;fontStyle=1;overflow=hidden;" vertex="1" parent="-HlL1mTTfAjTqxTfN3M8-36">
          <mxGeometry width="30" height="30" as="geometry" />
        </mxCell>
        <mxCell id="-HlL1mTTfAjTqxTfN3M8-38" value="PAINTING_NUM" style="shape=partialRectangle;connectable=0;fillColor=none;top=0;left=0;bottom=0;right=0;align=left;spacingLeft=6;fontStyle=5;overflow=hidden;" vertex="1" parent="-HlL1mTTfAjTqxTfN3M8-36">
          <mxGeometry x="30" width="150" height="30" as="geometry" />
        </mxCell>
        <mxCell id="-HlL1mTTfAjTqxTfN3M8-39" value="" style="shape=partialRectangle;collapsible=0;dropTarget=0;pointerEvents=0;fillColor=none;top=0;left=0;bottom=0;right=0;points=[[0,0.5],[1,0.5]];portConstraint=eastwest;" vertex="1" parent="-HlL1mTTfAjTqxTfN3M8-35">
          <mxGeometry y="60" width="180" height="30" as="geometry" />
        </mxCell>
        <mxCell id="-HlL1mTTfAjTqxTfN3M8-40" value="" style="shape=partialRectangle;connectable=0;fillColor=none;top=0;left=0;bottom=0;right=0;editable=1;overflow=hidden;" vertex="1" parent="-HlL1mTTfAjTqxTfN3M8-39">
          <mxGeometry width="30" height="30" as="geometry" />
        </mxCell>
        <mxCell id="-HlL1mTTfAjTqxTfN3M8-41" value="PAINTING_TITLE" style="shape=partialRectangle;connectable=0;fillColor=none;top=0;left=0;bottom=0;right=0;align=left;spacingLeft=6;overflow=hidden;" vertex="1" parent="-HlL1mTTfAjTqxTfN3M8-39">
          <mxGeometry x="30" width="150" height="30" as="geometry" />
        </mxCell>
        <mxCell id="-HlL1mTTfAjTqxTfN3M8-48" value="" style="shape=partialRectangle;collapsible=0;dropTarget=0;pointerEvents=0;fillColor=none;top=0;left=0;bottom=0;right=0;points=[[0,0.5],[1,0.5]];portConstraint=eastwest;" vertex="1" parent="-HlL1mTTfAjTqxTfN3M8-35">
          <mxGeometry y="90" width="180" height="30" as="geometry" />
        </mxCell>
        <mxCell id="-HlL1mTTfAjTqxTfN3M8-49" value="FK" style="shape=partialRectangle;connectable=0;fillColor=none;top=0;left=0;bottom=0;right=0;fontStyle=0;overflow=hidden;" vertex="1" parent="-HlL1mTTfAjTqxTfN3M8-48">
          <mxGeometry width="30" height="30" as="geometry" />
        </mxCell>
        <mxCell id="-HlL1mTTfAjTqxTfN3M8-50" value="PAINTER_NUM" style="shape=partialRectangle;connectable=0;fillColor=none;top=0;left=0;bottom=0;right=0;align=left;spacingLeft=6;fontStyle=0;overflow=hidden;" vertex="1" parent="-HlL1mTTfAjTqxTfN3M8-48">
          <mxGeometry x="30" width="150" height="30" as="geometry" />
        </mxCell>
      </root>
    </mxGraphModel>
  </diagram>
</mxfile>
